# xmcd
#
# Track frame offsets: 
#        150
#        13163
#        25535
#        34090
#        46798
#        56815
#        67028
#        76790
#        86858
#        99210
#        112225
#        122208
#        133205
#        142160
#        154973
#        166400
#        174800
#        184708
#        197565
#        207418
#
# Disc length: 2926 seconds
#
# Revision: 2
# Processed by: cddbd v1.5.2PL0 Copyright (c) Steve Scherf et al.
# Submitted via: ExactAudioCopy v1.0b2
#
DISCID=190b6c14
DTITLE=Various Artist - Legends
DYEAR=1986
DGENRE=Oldies
TTITLE0=Jerry Lee Lewis - Whole Lotta Shakin'
TTITLE1=Johnny Cash - I Walk the Line
TTITLE2=Jerry Lee Lewis - Great Balls of Fire
TTITLE3=Johnny Cash - Folsom Prison Blues
TTITLE4=Roy Orbison - Ooby Dooby
TTITLE5=Carl Perkins - Blue Suede Shoes
TTITLE6=Charlie Rich - Lonely Weekends
TTITLE7=Johnny Cash - Get Rhythm
TTITLE8=Jerry Lee Lewis - Good Rockin' Tonight
TTITLE9=Carl Perkins - Roll Over Beethoven
TTITLE10=Johnny Cash - Ballad of a Teenage Queen
TTITLE11=Jerry Lee Lewis - Mean Woman Blues
TTITLE12=Roy Orbison - Mean Little Woman
TTITLE13=Carl Perkins - Honey Don't
TTITLE14=Charlie Rich - School Days
TTITLE15=Johnny Cash - Guess Things Happen That Way
TTITLE16=Jerry Lee Lewis - Let the Good Times Roll
TTITLE17=Carl Perkins - That's Right
TTITLE18=Johnny Cash - Rock Island Line
TTITLE19=Jerry Lee Lewis - Breathless
EXTD=
EXTT0=Jerry Lee Lewis
EXTT1=Johnny Cash
EXTT2=Jerry Lee Lewis
EXTT3=Johnny Cash
EXTT4=Roy Orbison
EXTT5=Carl Perkins
EXTT6=Charlie Rich
EXTT7=Johnny Cash
EXTT8=Jerry Lee Lewis
EXTT9=Carl Perkins
EXTT10=Johnny Cash
EXTT11=Jerry Lee Lewis
EXTT12=Roy Orbison
EXTT13=Carl Perkins
EXTT14=Charlie Rich
EXTT15=Johnny Cash
EXTT16=Jerry Lee Lewis
EXTT17=Carl Perkins
EXTT18=Johnny Cash
EXTT19=Jerry Lee Lewis
PLAYORDER=
